<?xml version="1.0" encoding="utf-8"?>
<!-- Generator: Adobe Illustrator 19.2.0, SVG Export Plug-In . SVG Version: 6.00 Build 0)  -->
<svg version="1.1" id="Layer_1" xmlns="http://www.w3.org/2000/svg" xmlns:xlink="http://www.w3.org/1999/xlink" x="0px" y="0px"
	 viewBox="0 0 59.5 59.5" style="enable-background:new 0 0 59.5 59.5;" xml:space="preserve">
<style type="text/css">
	.st0{fill:none;stroke:#000000;stroke-miterlimit:10;}
</style>
<g>
	<path class="st0" d="M48.3,15.7c-0.4-1.1-0.9-1.9-1.8-2.7c-0.8-0.8-1.6-1.3-2.7-1.8c-0.9-0.3-2.1-0.7-4.4-0.8
		c-2.5-0.1-3.3-0.1-9.6-0.1c-6.4,0-7.1,0-9.6,0.1c-2.3,0.1-3.6,0.5-4.4,0.8c-1.1,0.4-1.9,0.9-2.7,1.8c-0.8,0.8-1.3,1.6-1.8,2.7
		c-0.3,0.9-0.7,2.1-0.8,4.4c-0.1,2.5-0.1,3.3-0.1,9.6c0,6.4,0,7.1,0.1,9.6c0.1,2.3,0.5,3.6,0.8,4.4c0.4,1.1,0.9,1.9,1.8,2.7
		c0.8,0.8,1.6,1.3,2.7,1.8c0.9,0.3,2.1,0.7,4.4,0.8c2.5,0.1,3.3,0.1,9.6,0.1c6.4,0,7.1,0,9.6-0.1c2.3-0.1,3.6-0.5,4.4-0.8
		c1.1-0.4,1.9-0.9,2.7-1.8c0.8-0.8,1.3-1.6,1.8-2.7c0.3-0.9,0.7-2.1,0.8-4.4c0.1-2.5,0.1-3.3,0.1-9.6s0-7.1-0.1-9.6
		C49,17.8,48.6,16.6,48.3,15.7z M29.8,42c-6.7,0-12.2-5.5-12.2-12.2S23,17.6,29.8,17.6S42,23,42,29.8S36.5,42,29.8,42z M42.5,19.9
		c-1.6,0-2.9-1.3-2.9-2.9s1.3-2.9,2.9-2.9c1.6,0,2.9,1.3,2.9,2.9C45.3,18.7,44,19.9,42.5,19.9z"/>
	<circle class="st0" cx="29.8" cy="29.8" r="7.9"/>
	<path class="st0" d="M53.9,1.4H5.6c-2.3,0-4.2,1.8-4.2,4.1V54c0,2.3,1.9,4.1,4.2,4.1h48.3c2.3,0,4.2-1.8,4.2-4.1V5.5
		C58.1,3.3,56.2,1.4,53.9,1.4z M53.4,39.6c-0.1,2.5-0.5,4.3-1.1,5.8c-0.6,1.6-1.4,2.9-2.7,4.2s-2.6,2.1-4.2,2.7
		c-1.5,0.6-3.2,1-5.8,1.1c-2.5,0.1-3.3,0.2-9.8,0.2s-7.3,0-9.8-0.2c-2.5-0.1-4.3-0.5-5.8-1.1c-1.6-0.6-2.9-1.4-4.2-2.7
		S7.9,47,7.3,45.4c-0.6-1.5-1-3.2-1.1-5.8C6,37,6,36.2,6,29.8s0-7.3,0.2-9.8c0.1-2.5,0.5-4.3,1.1-5.8c0.6-1.6,1.4-2.9,2.7-4.2
		s2.6-2.1,4.2-2.7c1.5-0.6,3.2-1,5.8-1.1C22.5,6,23.3,6,29.8,6s7.3,0,9.8,0.2c2.5,0.1,4.3,0.5,5.8,1.1c1.6,0.6,2.9,1.4,4.2,2.7
		s2.1,2.6,2.7,4.2c0.6,1.5,1,3.2,1.1,5.8c0.1,2.5,0.2,3.3,0.2,9.8C53.5,36.2,53.5,37,53.4,39.6z"/>
</g>
</svg>
