<?xml version="1.0" encoding="utf-8"?>
<!-- Generator: Adobe Illustrator 19.2.0, SVG Export Plug-In . SVG Version: 6.00 Build 0)  -->
<svg version="1.1" id="Layer_1" xmlns="http://www.w3.org/2000/svg" xmlns:xlink="http://www.w3.org/1999/xlink" x="0px" y="0px"
	 viewBox="0 0 59.5 60" style="enable-background:new 0 0 59.5 60;" xml:space="preserve">
<style type="text/css">
	.st0{fill:none;stroke:#000000;stroke-miterlimit:10;}
</style>
<path class="st0" d="M53.9,1.6H5.6c-2.3,0-4.2,1.8-4.2,4.1v48.5c0,2.3,1.9,4.1,4.2,4.1h48.3c2.3,0,4.2-1.8,4.2-4.1V5.7
	C58.1,3.5,56.2,1.6,53.9,1.6z M18.2,49.9H9.8v-27h8.4V49.9L18.2,49.9z M14,19.2c-2.7,0-4.9-2.2-4.9-4.9s2.2-4.9,4.9-4.9
	s4.9,2.2,4.9,4.9S16.7,19.2,14,19.2z M49.7,49.9h-8.4V36.8c0-3.1,0-7.2-4.4-7.2s-5,3.4-5,6.9v13.4h-8.4v-27h8.1v3.7h0.1
	c1.1-2.1,3.9-4.4,8-4.4c8.5,0,10.1,5.6,10.1,12.9L49.7,49.9L49.7,49.9z"/>
</svg>
