<?xml version="1.0" encoding="utf-8"?>
<!-- Generator: Adobe Illustrator 19.2.0, SVG Export Plug-In . SVG Version: 6.00 Build 0)  -->
<svg version="1.1" id="Layer_1" xmlns="http://www.w3.org/2000/svg" xmlns:xlink="http://www.w3.org/1999/xlink" x="0px" y="0px"
	 viewBox="0 0 78.1 85" style="enable-background:new 0 0 78.1 85;" xml:space="preserve">
<path d="M7.9,39.1c0.4-0.3,0.7-0.6,0.9-0.8s0.5-0.5,0.7-0.8s0.5-0.5,0.7-0.7s0.3-0.2,0.5-0.1c0.1,0.1,0.2,0.3,0.1,0.4
	c0,0.1-0.1,0.1-0.1,0.2c-0.1,0.1-0.5,0.5-1.3,1.3c-0.8,0.8-1.4,1.2-1.7,1.4c-0.3,0.1-0.6,0.1-0.7,0c-0.2-0.1-0.2-0.3-0.1-0.5
	l0.1-0.2c0,0,0-0.1,0.1-0.3l0.1-0.7l0.2-6.5c0-0.5-0.2-0.8-0.7-0.8h-1c-0.1,0-0.2,0-0.3-0.1c-0.1-0.1-0.1-0.2-0.1-0.3
	c0-0.1,0-0.2,0.1-0.2c0.1-0.1,0.1-0.1,0.3-0.1h1.1c0.7,0,1.1,0.2,1.2,0.6c0.1,0.4,0.2,0.7,0.2,1L7.9,39.1z M8.6,26.9
	c-0.2-0.2-0.4-0.4-0.6-0.6c-0.2-0.2-0.5-0.4-1-0.8c-0.5-0.4-0.7-0.6-0.8-0.6c-0.1-0.1-0.1-0.2-0.1-0.3c0-0.1,0-0.2,0.1-0.3
	s0.2-0.1,0.4-0.1c0.1,0,0.4,0.2,0.9,0.6c0.5,0.4,1,0.8,1.5,1.2c0.5,0.4,0.8,0.8,0.8,1.1c0.1,0.3,0.1,0.5,0,0.6
	c-0.1,0.1-0.2,0.1-0.4,0.1c-0.1,0-0.3-0.1-0.4-0.4C8.9,27.3,8.7,27.1,8.6,26.9z M15.2,37.4c-0.7-0.6-1.1-1-1.4-1.4l-1.1-1.2
	c-0.5-0.5-0.7-0.9-0.8-1c-0.1-0.2-0.2-0.3-0.2-0.4c-0.1-0.1-0.1-0.3,0-0.4c0.1-0.1,0.2-0.2,0.3-0.2c0.1,0,0.3,0.3,0.7,0.8
	s0.8,1,1.2,1.6c0.4,0.5,1.1,1.1,1.9,1.8c0.8-0.6,1.3-1.1,1.7-1.5c0.3-0.3,0.8-0.8,1.3-1.5c0.5-0.7,0.7-1.1,0.6-1.3
	c-0.1-0.1-0.2-0.2-0.4-0.2h-8c-0.1,0-0.2,0-0.3-0.1s-0.1-0.2-0.1-0.3c0-0.1,0-0.1,0.1-0.2s0.2-0.1,0.2-0.1h8.3c0.6,0,1,0.2,1,0.5
	c0,0.3,0,0.6,0,0.8c-0.1,0.4-0.5,1-1.1,1.8c-0.6,0.9-1.5,1.7-2.6,2.6c1.3,1,2.5,1.6,3.4,1.8s1.5,0.4,1.7,0.5
	c0.2,0.1,0.3,0.2,0.2,0.4c-0.1,0.2-0.2,0.3-0.4,0.3c-0.2,0-0.9-0.2-2-0.6c-1.1-0.4-2.3-1.1-3.6-2c-0.8,0.5-1.5,0.9-2.1,1.2
	c-0.6,0.2-1.1,0.5-1.5,0.6c-0.4,0.2-0.8,0.3-1.1,0.4l-1,0.3c-0.3,0.1-0.5,0.1-0.6,0.1s-0.2-0.1-0.3-0.1c-0.1-0.1-0.1-0.2,0-0.3
	c0.1-0.2,0.4-0.3,1-0.5c0.6-0.2,1.4-0.4,2.3-0.8S14.5,37.9,15.2,37.4z M13.8,24.1h4.1c0.8,0,1.2,0.5,1.2,1.4v4
	c0,0.5,0.3,0.7,0.9,0.7c0.1,0,0.4,0,0.7,0c0.3,0,0.6-0.1,0.9-0.1c0.3-0.1,0.4,0,0.5,0c0.1,0.1,0.1,0.2,0.1,0.3
	c0,0.1-0.1,0.2-0.2,0.4c-0.1,0.1-0.8,0.2-1.9,0.2c-0.7,0-1.1-0.1-1.4-0.3c-0.2-0.2-0.4-0.5-0.4-0.9v-3.9c0-0.3,0-0.5-0.1-0.7
	s-0.3-0.3-0.6-0.3h-3.7c-0.2,0-0.3,0-0.4,0.1c-0.1,0-0.1,0.1-0.2,0.2c0,0.1-0.1,0.3-0.1,0.5s0,0.6-0.1,0.9c0,0.4-0.1,0.8-0.1,1.2
	c-0.1,0.4-0.2,0.8-0.4,1.3c-0.2,0.5-0.6,1-1.2,1.7c-0.6,0.6-1,1-1.2,1s-0.3,0-0.4-0.1c-0.1-0.1-0.1-0.2-0.1-0.3c0-0.1,0-0.2,0.1-0.3
	c0.1-0.1,0.2-0.2,0.4-0.4c0.2-0.2,0.4-0.4,0.7-0.6c0.2-0.2,0.5-0.6,0.8-1c0.3-0.4,0.5-0.9,0.6-1.4c0.1-0.5,0.1-0.9,0.2-1.1
	c0-0.2,0-0.5,0-0.9c0-0.3,0-0.6,0.1-0.9c0-0.2,0.1-0.4,0.3-0.6C12.9,24.1,13.3,24.1,13.8,24.1z"/>
<path d="M26.1,39.1c1.1-1,1.9-1.8,2.4-2.4c0.5-0.6,0.8-0.8,1-0.7s0.2,0.3,0.1,0.5c0,0.2-0.2,0.4-0.4,0.6c-0.2,0.2-0.5,0.5-0.9,0.9
	c-0.3,0.4-0.6,0.6-0.8,0.8l-1,0.9c-0.4,0.4-0.6,0.6-0.8,0.6c-0.1,0-0.3,0-0.4-0.1c-0.1-0.1-0.1-0.2-0.1-0.3c0-0.1,0-0.2,0.1-0.3
	s0.1-0.2,0.1-0.2l0.2-8c0-0.2,0-0.4-0.1-0.6c-0.1-0.2-0.3-0.3-0.6-0.3h-1.2c-0.1,0-0.2,0-0.2-0.1c-0.1-0.1-0.1-0.2-0.1-0.3
	c0-0.2,0.1-0.3,0.4-0.3l1.3,0c1,0,1.4,0.5,1.4,1.6L26.1,39.1z M26,25.2c0.5,0.6,1,1.1,1.3,1.5s0.5,0.8,0.7,1s0.1,0.4,0,0.6
	c-0.1,0.1-0.3,0.1-0.4,0c-0.1-0.1-0.2-0.3-0.4-0.6s-0.5-0.7-1-1.3s-0.9-0.9-1.1-1.2c-0.3-0.2-0.5-0.4-0.5-0.5
	c-0.1-0.1-0.1-0.2-0.1-0.3s0-0.2,0.1-0.3c0.1-0.1,0.2-0.1,0.4-0.1C24.9,24.2,25.3,24.5,26,25.2z M35,29h4.6c0.2,0,0.3,0.1,0.3,0.2
	s0,0.3-0.1,0.3c-0.1,0.1-0.1,0.1-0.2,0.1H35V40c0,0.1,0,0.2-0.1,0.3c-0.1,0.1-0.2,0.1-0.3,0.1c-0.1,0-0.2,0-0.3-0.1
	c-0.1-0.1-0.1-0.2-0.1-0.3V29.7h-5c-0.1,0-0.2,0-0.2-0.1c-0.1-0.1-0.1-0.1-0.1-0.2c0-0.1,0-0.2,0.1-0.2C29,29,29.1,29,29.2,29h5
	v-4.9c0-0.1,0.1-0.2,0.2-0.3c0.1-0.1,0.3-0.1,0.4,0C35,23.9,35,24,35,24.1V29z"/>
<path d="M21.7,46.8c0.2,0,0.3,0.1,0.3,0.3c0,0.2,0,0.3-0.1,0.4c-0.1,0.1-0.2,0.1-0.2,0.1h-9.6c-0.6,1.5-1.1,2.5-1.4,3.1
	c-0.3,0.6-0.9,1.5-1.9,2.9v8.1c0,0.1-0.1,0.2-0.2,0.3s-0.3,0.1-0.4,0c-0.1-0.1-0.2-0.2-0.2-0.3v-7.2c-0.3,0.4-0.6,0.7-0.8,1
	c-0.2,0.3-0.4,0.5-0.7,0.8c-0.2,0.3-0.4,0.4-0.5,0.6s-0.2,0.2-0.4,0.2c-0.1,0-0.3,0-0.3-0.1c-0.1-0.1-0.1-0.2-0.1-0.3
	c0-0.1,0.4-0.6,1.1-1.3S8,53.4,9,52c1-1.4,1.7-2.9,2.3-4.5H6c-0.1,0-0.2,0-0.2-0.1s-0.1-0.1-0.1-0.2c0-0.1,0-0.2,0.1-0.3
	s0.2-0.1,0.2-0.1h5.6c0.1-0.4,0.3-0.7,0.4-1c0.1-0.3,0.2-0.5,0.2-0.7c0-0.1,0.2-0.2,0.3-0.2c0.2,0,0.3,0.2,0.4,0.4
	c0,0.1,0,0.3-0.1,0.6l-0.2,0.8H21.7z M15.5,54.3h-4.9c-0.1,0-0.2,0-0.3-0.1c-0.1-0.1-0.1-0.2-0.1-0.3c0-0.2,0.1-0.3,0.4-0.3h4.9V50
	c0-0.1,0-0.1,0.1-0.2c0.1-0.1,0.2-0.1,0.3-0.1c0.1,0,0.2,0,0.3,0.1c0.1,0.1,0.1,0.1,0.1,0.2v3.5h5.1c0.2,0,0.3,0.1,0.3,0.3
	c0,0.2,0,0.3-0.1,0.4c-0.1,0.1-0.1,0.1-0.2,0.1h-5.1v6.3h5.3c0.1,0,0.2,0,0.2,0.1c0.1,0.1,0.1,0.2,0.1,0.3s0,0.2-0.1,0.3
	c-0.1,0.1-0.2,0.1-0.3,0.1H10.2c-0.2,0-0.3-0.1-0.3-0.4c0-0.2,0.1-0.4,0.3-0.4h5.2V54.3z"/>
<path d="M32.1,57.2v4.9c0,0.2-0.1,0.4-0.3,0.4c-0.2,0-0.3,0-0.4-0.1c-0.1-0.1-0.1-0.2-0.1-0.3v-4.9h-5.7c-1,0-1.5-0.2-1.6-0.6
	c-0.1-0.4-0.1-0.8-0.1-1v-6c0-0.2,0.1-0.5,0.2-0.9c0.1-0.4,0.6-0.6,1.5-0.6h5.7v-2.7c0-0.1,0.1-0.2,0.2-0.4s0.3-0.1,0.4,0
	c0.1,0.1,0.2,0.3,0.2,0.4V48h5.6c0.7,0,1.2,0.1,1.4,0.4c0.2,0.3,0.4,0.7,0.4,1.2v6.1c0,1-0.6,1.5-1.7,1.5H32.1z M31.2,48.8h-5.7
	c-0.4,0-0.7,0.1-0.8,0.3c-0.1,0.2-0.2,0.4-0.2,0.7v5.8c0,0.3,0,0.5,0.1,0.7c0.1,0.2,0.4,0.3,0.8,0.3h5.7V48.8z M32.1,48.8v7.7h5.6
	c0.5,0,0.8-0.1,0.9-0.3c0.1-0.2,0.1-0.4,0.1-0.7v-5.9c0-0.2,0-0.4-0.1-0.6c-0.1-0.2-0.3-0.3-0.8-0.3H32.1z"/>
<path d="M55.3,45.8c0.6,0,1,0.2,1.3,0.4c0.2,0.2,0.4,0.7,0.4,1.3v12.3c0,1-0.5,1.5-1.6,1.5H44.1c-1.1,0-1.6-0.5-1.6-1.5V47.4
	c0-0.3,0.1-0.7,0.2-1c0.2-0.4,0.6-0.5,1.4-0.5H55.3z M55.3,60.7c0.3,0,0.6-0.1,0.7-0.2c0.1-0.1,0.2-0.3,0.2-0.7V47.5
	c0-0.2,0-0.4-0.1-0.7c-0.1-0.2-0.4-0.4-0.8-0.4H44.2c-0.5,0-0.8,0.1-0.9,0.3c-0.1,0.2-0.1,0.4-0.1,0.7v12.3c0,0.2,0,0.3,0.1,0.6
	c0.1,0.2,0.3,0.4,0.8,0.4H55.3z M50,49.1v3.4h4.1c0.1,0,0.1,0,0.2,0.1c0.1,0.1,0.1,0.1,0.1,0.2c0,0.1-0.1,0.2-0.1,0.2
	c-0.1,0.1-0.1,0.1-0.2,0.1H50v5h5.2c0.1,0,0.1,0,0.2,0.1c0.1,0.1,0.1,0.1,0.1,0.2s0,0.2-0.1,0.2c-0.1,0.1-0.1,0.1-0.2,0.1h-11
	c-0.1,0-0.2,0-0.2-0.1c-0.1-0.1-0.1-0.2-0.1-0.2c0-0.1,0-0.1,0.1-0.2c0.1-0.1,0.1-0.1,0.2-0.1h5.1v-5h-4.2c-0.1,0-0.2,0-0.3-0.1
	c-0.1-0.1-0.1-0.2-0.1-0.3c0-0.2,0.2-0.3,0.4-0.3h4.2v-3.4h-4.4c-0.3,0-0.4-0.1-0.4-0.3c0-0.2,0.1-0.3,0.4-0.3h9.5
	c0.2,0,0.3,0.1,0.3,0.2c0,0.2,0,0.3-0.1,0.3s-0.1,0.1-0.2,0.1H50z M54.4,57c0,0.2-0.1,0.3-0.2,0.4c-0.1,0.1-0.2,0.1-0.4,0
	c0,0-0.1,0-0.1-0.1s-0.3-0.4-0.7-1s-0.7-1.1-1-1.4c-0.3-0.3-0.4-0.5-0.4-0.5c0,0,0-0.1-0.1-0.2s0-0.2,0.1-0.3c0.1-0.1,0.3-0.1,0.4,0
	c0.2,0.2,0.7,0.8,1.3,1.7C54,56.4,54.3,56.9,54.4,57z"/>
<path d="M6,79.6V67h0.8v12.7H6z"/>
<path d="M17.5,79.6L10,68.3v11.4H9.3V67h0.8l7.4,11.3l0-11.3h0.8v12.7H17.5z"/>
<path d="M34.5,70.3c-0.7-1.7-2-2.9-3.7-2.9c-2.6,0-4.2,2.6-4.2,5.9c0,3.3,1.6,5.9,4.2,5.9c1.5,0,2.7-0.8,3.4-2.2l0.8,0.3
	c-0.9,1.5-2.3,2.6-4.1,2.6c-3.2,0-5.1-2.9-5.1-6.6s1.9-6.6,5.1-6.6c2.1,0,3.7,1.3,4.5,3.3L34.5,70.3z"/>
<path d="M45.6,79.6v-6.2H38v6.2h-0.8V67H38v5.8h7.6V67h0.8v12.7H45.6z"/>
<path d="M48.9,79.6V67h0.8v12.7H48.9z"/>
<path d="M60.3,79.6l-7.4-11.4v11.4h-0.8V67H53l7.4,11.3l0-11.3h0.8v12.7H60.3z"/>
<path d="M72,79.6L70.7,76h-5.7l-1.3,3.7H63L67.5,67h0.8l4.5,12.7H72z M67.9,67.7l-2.6,7.7h5.3L67.9,67.7z"/>
<g>
	<path d="M10,18.1H6V5.4h4c3.2,0,5.1,2.8,5.1,6.3C15,15.2,13.1,18.1,10,18.1z M10,6.1H6.8v11.3H10c2.6,0,4.2-2.5,4.2-5.7
		C14.2,8.6,12.6,6.1,10,6.1z"/>
	<path d="M17.2,18.1V5.4h7.6v0.7H18v5h5.2v0.7H18v5.6h7.2v0.7H17.2z"/>
	<path d="M29.9,18.3c-1.7,0-3.2-0.8-4-2.7l0.6-0.5c0.6,1.7,1.7,2.5,3.4,2.5c2,0,3.2-1.2,3.2-2.8c0-1.2-0.8-2.1-3.7-3.2
		c-2.5-0.9-3.4-1.9-3.4-3.4c0-2.1,1.7-3.1,3.9-3.1c1.7,0,3.1,0.7,4,2.1l-0.6,0.4c-0.8-1.2-1.9-1.9-3.4-1.9c-1.6,0-3,0.7-3,2.4
		c0,1.3,0.8,1.9,3,2.8c3.3,1.3,4,2.3,4,3.8C34,17.1,32.2,18.3,29.9,18.3z"/>
	<path d="M36,18.1V5.4h0.8v12.7H36z"/>
	<path d="M44,18.3c-3.2,0-5.1-2.9-5.1-6.6c0-3.6,1.9-6.6,5.1-6.6c2.1,0,3.7,1.3,4.5,3.3l-0.7,0.3C47,7,45.7,5.8,44,5.8
		c-2.6,0-4.2,2.6-4.2,5.9c0,3.3,1.6,5.9,4.2,5.9c2.4,0,3.9-2.2,4.1-5h-3.5v-0.7h4.4C48.9,15.5,47.1,18.3,44,18.3z"/>
	<path d="M59.3,18.1L51.9,6.7v11.4h-0.8V5.4h0.8l7.4,11.3l0-11.3h0.8v12.7H59.3z"/>
</g>
</svg>
