<?xml version="1.0" encoding="utf-8"?>
<!-- Generator: Adobe Illustrator 19.2.0, SVG Export Plug-In . SVG Version: 6.00 Build 0)  -->
<svg version="1.1" id="Layer_1" xmlns="http://www.w3.org/2000/svg" xmlns:xlink="http://www.w3.org/1999/xlink" x="0px" y="0px"
	 viewBox="0 0 59.5 60" style="enable-background:new 0 0 59.5 60;" xml:space="preserve">
<style type="text/css">
	.st0{fill:none;stroke:#000000;stroke-miterlimit:10;}
</style>
<g>
	<path class="st0" d="M29.8,1.7C14.1,1.7,1.4,14.3,1.4,30c0,11.6,7,21.6,17,26c-0.1-2,0-4.3,0.5-6.5c0.6-2.3,3.7-15.4,3.7-15.4
		s-0.9-1.8-0.9-4.5c0-4.2,2.4-7.3,5.5-7.3c2.6,0,3.8,1.9,3.8,4.3c0,2.6-1.7,6.5-2.5,10.1c-0.7,3,1.5,5.5,4.5,5.5c5.4,0,9-6.9,9-15.1
		c0-6.2-4.2-10.9-11.8-10.9c-8.6,0-14,6.4-14,13.6c0,2.5,0.7,4.2,1.9,5.5c0.5,0.6,0.6,0.9,0.4,1.6c-0.1,0.5-0.4,1.8-0.6,2.3
		c-0.2,0.7-0.8,1-1.4,0.7c-4-1.6-5.8-6-5.8-10.8c0-8,6.8-17.7,20.3-17.7c10.8,0,17.9,7.8,17.9,16.2c0,11.1-6.2,19.4-15.3,19.4
		c-3.1,0-5.9-1.7-6.9-3.5c0,0-1.6,6.5-2,7.8c-0.6,2.2-1.8,4.4-2.8,6.1c2.5,0.8,5.2,1.2,8,1.2c15.7,0,28.3-12.7,28.3-28.3
		C58.1,14.3,45.4,1.7,29.8,1.7z"/>
</g>
</svg>
